<?xml version="1.0" encoding="UTF-8"?>
<svg xmlns="http://www.w3.org/2000/svg"
     xmlns:xlink="http://www.w3.org/1999/xlink"
     xmlns:gadfly="http://www.gadflyjl.org/ns"
     version="1.2"
     width="80mm" height="60mm" viewBox="0 0 80 60"
     stroke="none"
     fill="#000000"
     stroke-width="0.3"
     font-size="3.88"
>
<g class="plotroot xscalable yscalable" id="fig-60d6ef43475041fa97cb14972ee404ce-element-1">
  <g class="guide xlabels" font-size="2.82" font-family="'PT Sans Caption','Helvetica Neue','Helvetica',sans-serif" fill="#6C606B" id="fig-60d6ef43475041fa97cb14972ee404ce-element-2">
    <text x="14.69" y="51.33" text-anchor="middle" dy="0.6em">0.0</text>
    <text x="29.27" y="51.33" text-anchor="middle" dy="0.6em">2.5</text>
    <text x="43.85" y="51.33" text-anchor="middle" dy="0.6em">5.0</text>
    <text x="58.42" y="51.33" text-anchor="middle" dy="0.6em">7.5</text>
    <text x="73" y="51.33" text-anchor="middle" dy="0.6em">10.0</text>
  </g>
  <g clip-path="url(#fig-60d6ef43475041fa97cb14972ee404ce-element-4)" id="fig-60d6ef43475041fa97cb14972ee404ce-element-3">
    <g pointer-events="visible" opacity="1" fill="#000000" fill-opacity="0.000" stroke="#000000" stroke-opacity="0.000" class="guide background" id="fig-60d6ef43475041fa97cb14972ee404ce-element-5">
      <rect x="12.69" y="5" width="62.31" height="45.33"/>
    </g>
    <g class="guide ygridlines xfixed" stroke-dasharray="0.5,0.5" stroke-width="0.2" stroke="#D0D0E0" id="fig-60d6ef43475041fa97cb14972ee404ce-element-6">
      <path fill="none" d="M12.69,48.33 L 75 48.33"/>
      <path fill="none" d="M12.69,38 L 75 38"/>
      <path fill="none" d="M12.69,27.66 L 75 27.66"/>
      <path fill="none" d="M12.69,17.33 L 75 17.33"/>
      <path fill="none" d="M12.69,7 L 75 7"/>
    </g>
    <g class="guide xgridlines yfixed" stroke-dasharray="0.5,0.5" stroke-width="0.2" stroke="#D0D0E0" id="fig-60d6ef43475041fa97cb14972ee404ce-element-7">
      <path fill="none" d="M14.69,5 L 14.69 50.33"/>
      <path fill="none" d="M29.27,5 L 29.27 50.33"/>
      <path fill="none" d="M43.85,5 L 43.85 50.33"/>
      <path fill="none" d="M58.42,5 L 58.42 50.33"/>
      <path fill="none" d="M73,5 L 73 50.33"/>
    </g>
    <g class="plotpanel" id="fig-60d6ef43475041fa97cb14972ee404ce-element-8">
      <g stroke-width="0.3" fill="#000000" fill-opacity="0.000" class="geometry" stroke="#0000FF" id="fig-60d6ef43475041fa97cb14972ee404ce-element-9">
        <path fill="none" d="M20.52,44.19 L 26.35 40.06 32.19 35.93 38.02 31.8 43.85 27.66 49.68 23.53 55.51 19.4 61.34 15.27 67.17 11.13 73 7"/>
      </g>
    </g>
  </g>
  <g class="guide ylabels" font-size="2.82" font-family="'PT Sans Caption','Helvetica Neue','Helvetica',sans-serif" fill="#6C606B" id="fig-60d6ef43475041fa97cb14972ee404ce-element-10">
    <text x="11.69" y="48.33" text-anchor="end" dy="0.35em">0.0</text>
    <text x="11.69" y="38" text-anchor="end" dy="0.35em">2.5</text>
    <text x="11.69" y="27.66" text-anchor="end" dy="0.35em">5.0</text>
    <text x="11.69" y="17.33" text-anchor="end" dy="0.35em">7.5</text>
    <text x="11.69" y="7" text-anchor="end" dy="0.35em">10.0</text>
  </g>
</g>
<defs>
<clipPath id="fig-60d6ef43475041fa97cb14972ee404ce-element-4">
  <path d="M12.69,5 L 75 5 75 50.33 12.69 50.33" />
</clipPath
></defs>
</svg>
